<svg width="21" height="21" viewBox="0 0 21 21" fill="none" xmlns="http://www.w3.org/2000/svg">
<path d="M19.8595 10.2559C19.8595 9.17887 18.88 8.30568 17.6718 8.30568C17.594 8.30568 17.5174 8.30939 17.4418 8.31652L20.4467 0.416016H7.67693L10.6777 8.30961C10.6334 8.30712 10.589 8.30584 10.5447 8.30575C9.33644 8.30575 8.35691 9.1788 8.35691 10.256C8.35691 11.1266 8.99699 11.8637 9.88034 12.1145C9.41381 12.8349 8.82669 13.4838 8.16012 14.0445C7.25371 14.8067 6.21638 15.3847 5.09444 15.7408C3.75864 15.1291 3.12788 13.7687 3.69702 12.5759C3.76131 12.4412 3.82693 12.3046 3.88964 12.1687C4.85735 11.9674 5.57855 11.194 5.57855 10.27C5.57855 9.19283 4.59901 8.31971 3.39071 8.31971C2.18241 8.31971 1.20297 9.19283 1.20297 10.27C1.20297 10.9305 1.57156 11.5139 2.13511 11.8667C1.59363 12.9657 0.797646 14.116 0.54964 15.4491C0.252416 17.0467 0.54864 18.7426 2.09872 19.7004C5.70871 21.9308 9.62734 18.3177 13.759 17.4094C15.2564 17.0803 16.9 17.1333 18.2193 16.4522C19.21 15.9407 19.8631 15.093 20.0484 14.1413C20.2316 13.2011 19.9646 12.2651 19.3507 11.506C19.6801 11.1557 19.8603 10.713 19.8595 10.2559Z" fill="#99425B"/>
<path d="M18.4306 13.478C18.2794 14.2667 17.7414 14.9556 16.9548 15.3682C16.2214 15.7528 15.3426 15.8676 14.412 15.9891C13.9136 16.0541 13.3981 16.1215 12.8946 16.2339C11.5632 16.5312 10.2736 17.1112 9.02659 17.6721C6.53082 18.7945 4.37549 19.7638 2.34318 18.4884C0.854484 17.5542 0.923198 15.8257 1.09663 14.8786C1.25738 14.001 1.69196 13.1928 2.11215 12.4113C2.18374 12.2784 2.25475 12.1454 2.32518 12.012C2.53699 12.0887 2.75925 12.1392 2.98595 12.1621C2.55817 13.4404 3.23091 14.8303 4.64283 15.4871L4.83613 15.577L5.04071 15.511C6.15696 15.151 7.18556 14.5735 8.09786 13.7941C8.68756 13.2903 9.19462 12.733 9.61136 12.1374C9.73806 12.1548 9.86601 12.1634 9.99414 12.1635C11.2901 12.1635 12.3632 11.2862 12.5293 10.1533C13.0597 10.1357 13.6231 10.1356 14.1567 10.1531C14.3226 11.2862 15.3959 12.1635 16.6918 12.1635C17.2337 12.1635 17.7363 12.0098 18.1504 11.7485C18.4378 12.2814 18.5451 12.8809 18.4306 13.478ZM3.27129 8.45362C4.1281 8.45362 4.8251 9.0848 4.8251 9.86061C4.8251 10.1392 4.73479 10.3991 4.57975 10.6179C4.32149 10.9827 3.88244 11.2327 3.37804 11.2638C3.34274 11.266 3.30713 11.2675 3.27129 11.2675C3.08033 11.2675 2.89743 11.236 2.72831 11.1787C2.3877 11.0628 2.10247 10.8428 1.92182 10.5568C1.78768 10.3449 1.7172 10.1049 1.7174 9.86061C1.7174 9.0848 2.41448 8.45362 3.27129 8.45362ZM8.44041 9.84722C8.44041 9.14234 9.01587 8.55708 9.76358 8.45589C9.83887 8.44562 9.91588 8.4403 9.99422 8.4403C10.4924 8.4403 10.9359 8.65395 11.2203 8.98503C11.2915 9.06758 11.3524 9.15706 11.4017 9.25183C11.4983 9.43812 11.5482 9.64142 11.548 9.84722C11.548 9.95968 11.533 10.069 11.5054 10.1739C11.3539 10.7479 10.8134 11.1867 10.151 11.2471C10.0995 11.2517 10.0472 11.2541 9.99422 11.2541C9.69534 11.2544 9.40282 11.1761 9.15212 11.0287C8.72434 10.7778 8.44041 10.3421 8.44041 9.84722ZM14.9256 8.17414C14.5874 8.46638 14.3441 8.83684 14.2219 9.24538C13.6363 9.22583 13.05 9.22583 12.4643 9.24538C12.3328 8.80376 12.0603 8.41415 11.6937 8.11823L13.3016 5.17443L14.9256 8.17414ZM7.99956 0.909458H18.5991L16.0956 7.59505C15.9879 7.6184 15.882 7.64811 15.7786 7.68398L13.3055 3.11593L10.8254 7.6567C10.7172 7.62309 10.6067 7.59613 10.4946 7.57598L7.99956 0.909458ZM18.2456 9.84729C18.2456 9.98831 18.2224 10.1245 18.1796 10.2531C18.078 10.5559 17.8671 10.8191 17.5806 11.0004C17.3203 11.1658 17.0099 11.2545 16.6918 11.2542C15.9744 11.2542 15.3692 10.8115 15.1912 10.212C15.1559 10.0931 15.138 9.97046 15.138 9.84729C15.138 9.65497 15.1809 9.47157 15.2583 9.30448C15.2983 9.21898 15.3476 9.13728 15.4053 9.06057C15.685 8.68683 16.1568 8.44037 16.6918 8.44037C16.7409 8.44037 16.7892 8.44264 16.8372 8.44675C17.6261 8.51329 18.2456 9.11584 18.2456 9.84729ZM19.2499 9.84729C19.2499 8.71646 18.3501 7.77291 17.1649 7.57138L20 0H6.59883L9.43832 7.58668C8.29429 7.8172 7.43615 8.74289 7.43615 9.84722C7.43615 10.6765 7.92012 11.4048 8.64545 11.8141C8.29656 12.2848 7.88287 12.7277 7.40876 13.1327C6.65682 13.775 5.81918 14.2621 4.91612 14.5826C4.00648 14.0652 3.62198 13.0895 4.02127 12.2396L4.05258 12.1729L4.11127 12.0479C5.11036 11.7324 5.82936 10.8714 5.82936 9.86061C5.82936 8.58337 4.6818 7.54431 3.27129 7.54431C1.8607 7.54431 0.713143 8.58337 0.713143 9.86061C0.713143 10.5053 1.00584 11.089 1.47682 11.5094C1.38898 11.6779 1.29981 11.8459 1.20932 12.0132C0.778648 12.814 0.290607 13.7217 0.105987 14.7298C-0.260592 16.7316 0.330755 18.332 1.77116 19.2358C2.64519 19.7843 3.53284 20 4.42604 20C6.10789 20 7.8093 19.2349 9.47339 18.4864C10.6718 17.9475 11.9111 17.3902 13.1352 17.1168C13.5907 17.0151 14.0593 16.9539 14.5555 16.8891C15.5395 16.7606 16.5569 16.6277 17.4581 16.1551C18.5029 15.6072 19.2179 14.6881 19.4202 13.6337C19.5937 12.7284 19.3849 11.8217 18.8754 11.0527C19.1209 10.6899 19.2505 10.2727 19.2499 9.84729Z" fill="white"/>
</svg>
