<svg width="34" height="19" viewBox="0 0 34 19" fill="none" xmlns="http://www.w3.org/2000/svg">
<path d="M8.02254 4.95359H14.4353V5.42558H8.61037V8.97759H14.088V9.44952H8.61037V13.3493H14.5021V13.8212H8.02254V4.95359ZM15.0098 4.95359H15.6911L18.7104 8.85338L21.7965 4.95353L25.9941 0L19.0978 9.26327L22.6516 13.8212H21.9435L18.7104 9.67309L15.464 13.8212H14.7693L18.3497 9.26321L15.0097 4.95359H15.0098ZM22.9054 5.42558V4.95353H30.2133V5.42551H26.8465V13.8212H26.2587V5.42558H22.9054V5.42558ZM0 4.95353H0.734785L10.8671 18.9928L6.67994 13.8212L0.614523 5.62425L0.587828 13.8213H0V4.95353ZM30.154 13.2068C30.0339 13.2068 29.9438 13.1207 29.9438 13.0093C29.9438 12.898 30.0339 12.8118 30.154 12.8118C30.2755 12.8118 30.3642 12.8979 30.3642 13.0093C30.3642 13.1206 30.2755 13.2068 30.154 13.2068ZM30.7316 12.6872H31.0462C31.0504 12.8449 31.1748 12.951 31.3578 12.951C31.5623 12.951 31.6781 12.837 31.6781 12.6236V11.2714H31.9984V12.6249C31.9984 13.0093 31.7582 13.2307 31.3607 13.2307C30.9875 13.2307 30.7316 13.0159 30.7316 12.6871V12.6872ZM32.4173 12.67H32.7347C32.7619 12.8516 32.9534 12.9669 33.2294 12.9669C33.4867 12.9669 33.6755 12.8436 33.6755 12.6739C33.6755 12.5281 33.5553 12.4406 33.2823 12.381L33.0163 12.3213C32.6431 12.2404 32.4731 12.0734 32.4731 11.7924C32.4731 11.4518 32.7733 11.2251 33.2236 11.2251C33.6425 11.2251 33.9485 11.4517 33.9671 11.7739H33.6554C33.6254 11.5976 33.4595 11.4875 33.2193 11.4875C32.9663 11.4875 32.7976 11.6002 32.7976 11.7725C32.7976 11.909 32.9062 11.9873 33.175 12.0456L33.4023 12.0973C33.8256 12.1888 34 12.3478 34 12.6355C34 13.0013 33.6941 13.2307 33.2051 13.2307C32.7476 13.2307 32.4401 13.0119 32.4173 12.6699V12.67Z" fill="black"/>
</svg>
