<svg width="20" height="21" viewBox="0 0 20 21" fill="none" xmlns="http://www.w3.org/2000/svg">
<path d="M10 20.9615C9.68945 20.9615 9.39961 20.8845 9.13047 20.7497L6.3768 19.2284C5.96273 19.0166 6.16977 18.9395 6.29398 18.901C6.85297 18.7277 6.95648 18.6892 7.53617 18.381C7.59836 18.3425 7.68117 18.3618 7.7432 18.4003L9.85508 19.575C9.93789 19.6135 10.0414 19.6135 10.1035 19.575L18.3645 15.1267C18.4473 15.0882 18.4887 15.0112 18.4887 14.9149V6.03741C18.4887 5.94113 18.4473 5.8641 18.3645 5.82559L10.1035 1.39648C10.0207 1.35797 9.91719 1.35797 9.85508 1.39648L1.59414 5.82566C1.51133 5.86418 1.46992 5.96046 1.46992 6.03748V14.9149C1.46992 14.9919 1.51133 15.0882 1.59414 15.1267L3.85094 16.3398C5.0725 16.9175 5.83844 16.2436 5.83844 15.5696V6.80765C5.83844 6.69211 5.94203 6.57658 6.08695 6.57658H7.14289C7.26711 6.57658 7.39133 6.67286 7.39133 6.80765V15.5695C7.39133 17.0908 6.50102 17.9766 4.9482 17.9766C4.47203 17.9766 4.09938 17.9766 3.04352 17.4952L0.869531 16.3398C0.33125 16.0509 0 15.5118 0 14.9341V6.05674C0 5.47905 0.33125 4.93988 0.869531 4.65097L9.13047 0.202677C9.64805 -0.0669079 10.352 -0.0669079 10.8695 0.202677L19.1305 4.65097C19.6687 4.93981 20 5.47898 20 6.05674V14.9341C20 15.5118 19.6687 16.051 19.1305 16.3398L10.8695 20.7883C10.6004 20.9038 10.2898 20.9616 10 20.9616V20.9615ZM12.5466 14.857C8.92336 14.857 8.17805 13.3166 8.17805 12.0071C8.17805 11.8915 8.28156 11.776 8.42648 11.776H9.50305C9.62727 11.776 9.73086 11.853 9.73086 11.9686C9.89648 12.9891 10.3727 13.4899 12.5673 13.4899C14.3064 13.4899 15.0518 13.124 15.0518 12.2575C15.0518 11.7567 14.8448 11.3909 12.1325 11.1405C9.87578 10.9287 8.46789 10.4665 8.46789 8.79124C8.46789 7.23136 9.8757 6.30706 12.236 6.30706C14.8861 6.30706 16.1905 7.15433 16.3561 9.00299C16.3561 9.06075 16.3354 9.11852 16.294 9.17629C16.2526 9.2148 16.1905 9.25331 16.1284 9.25331H15.0518C14.9482 9.25331 14.8448 9.17629 14.824 9.08001C14.5755 8.02093 13.9338 7.67432 12.236 7.67432C10.3313 7.67432 10.1035 8.29051 10.1035 8.75266C10.1035 9.31115 10.3727 9.48439 12.9399 9.79248C15.4866 10.1006 16.6873 10.5435 16.6873 12.1996C16.6666 13.8942 15.176 14.857 12.5466 14.857V14.857Z" fill="#539E43"/>
</svg>
