<svg width="22" height="20" viewBox="0 0 22 20" fill="none" xmlns="http://www.w3.org/2000/svg">
<path d="M18.0884 6.4824C17.8543 6.40033 17.6181 6.32429 17.3803 6.25436C17.4202 6.08753 17.457 5.92271 17.4897 5.76079C18.0257 3.10184 17.6753 0.959738 16.4783 0.254455C15.3306 -0.421675 13.4536 0.283345 11.558 1.96902C11.3712 2.13544 11.1885 2.30667 11.0101 2.48252C10.8907 2.36558 10.7692 2.25092 10.6457 2.13858C8.65898 0.336206 6.66763 -0.423431 5.4719 0.283872C4.32523 0.962109 3.9857 2.97584 4.46832 5.49578C4.51634 5.74536 4.57055 5.99364 4.63091 6.2404C4.34904 6.32224 4.07705 6.40935 3.81674 6.50207C1.48749 7.33187 0 8.63223 0 9.98107C0 11.3742 1.59689 12.7715 4.02291 13.6187C4.21959 13.6871 4.41791 13.7505 4.61768 13.8088C4.5528 14.0746 4.4952 14.3422 4.44495 14.6112C3.98484 17.0875 4.34414 19.0536 5.48771 19.7275C6.66884 20.4235 8.65124 19.7082 10.5815 17.9841C10.738 17.8439 10.8911 17.6998 11.0406 17.5518C11.2337 17.7422 11.432 17.9271 11.6353 18.1062C13.5051 19.7502 15.3517 20.414 16.4942 19.7382C17.6742 19.0402 18.0577 16.9281 17.5598 14.3584C17.5206 14.157 17.4766 13.9567 17.4279 13.7576C17.5671 13.7154 17.7037 13.672 17.8369 13.6269C20.359 12.7731 22 11.3928 22 9.98107C22 8.62732 20.4645 7.31817 18.0884 6.4824ZM17.5414 12.7154C17.4211 12.7561 17.2977 12.7954 17.1719 12.8335C16.8934 11.9329 16.5177 10.9752 16.0579 9.98572C16.4966 9.01982 16.8579 8.07438 17.1285 7.17961C17.3536 7.24617 17.572 7.31633 17.7825 7.39035C19.8184 8.10652 21.0602 9.16524 21.0602 9.98107C21.0602 10.85 19.719 11.9781 17.5414 12.7154ZM16.6378 14.5449C16.858 15.6811 16.8894 16.7085 16.7435 17.5117C16.6126 18.2334 16.3491 18.7145 16.0232 18.9072C15.33 19.3173 13.8473 18.7843 12.2482 17.3783C12.0592 17.2117 11.8747 17.0399 11.6951 16.8628C12.315 16.1701 12.9345 15.3648 13.5392 14.4704C14.6028 14.374 15.6075 14.2163 16.5187 14.0011C16.5636 14.1861 16.6035 14.3675 16.6378 14.5449ZM7.50028 18.8364C6.82292 19.0807 6.28341 19.0878 5.95727 18.8956C5.26333 18.4867 4.97484 16.908 5.36834 14.7904C5.41512 14.5401 5.46868 14.2913 5.52896 14.0441C6.4301 14.2478 7.42758 14.3943 8.49363 14.4826C9.10241 15.3578 9.73981 16.1622 10.3822 16.8666C10.2457 17.0016 10.1059 17.1331 9.96308 17.2611C9.10946 18.0234 8.25413 18.5643 7.50028 18.8364ZM4.32695 12.7101C3.2542 12.3354 2.36827 11.8485 1.76103 11.3172C1.21533 10.8398 0.939898 10.3657 0.939898 9.98107C0.939898 9.16251 2.13417 8.11846 4.12612 7.40888C4.36786 7.32282 4.62086 7.2416 4.8834 7.16538C5.15874 8.08035 5.51985 9.03703 5.95564 10.0044C5.51418 10.9861 5.14791 11.9581 4.86991 12.8839C4.68756 12.8305 4.50652 12.7725 4.32695 12.7101ZM5.39069 5.31129C4.97724 3.15233 5.25181 1.52374 5.94284 1.11498C6.67881 0.679627 8.30629 1.30035 10.0217 2.85668C10.1335 2.95839 10.2436 3.06217 10.3518 3.16796C9.71257 3.86929 9.08102 4.66774 8.47765 5.53775C7.44296 5.63575 6.45253 5.7931 5.54194 6.00393C5.48584 5.77442 5.4354 5.54341 5.39069 5.31129ZM14.8805 7.70567C14.6654 7.32607 14.4424 6.95124 14.2115 6.58145C14.9134 6.67216 15.586 6.79254 16.2175 6.93971C16.0279 7.5607 15.7916 8.20987 15.5134 8.87547C15.3101 8.48127 15.0991 8.09126 14.8805 7.70567ZM11.0106 3.85428C11.444 4.33415 11.8782 4.86988 12.3052 5.45117C11.439 5.40937 10.5713 5.4092 9.70501 5.45065C10.1325 4.87471 10.5703 4.33969 11.0106 3.85428ZM7.1158 7.71226C6.89995 8.09474 6.69287 8.48232 6.49473 8.87467C6.2211 8.21145 5.98692 7.55929 5.79571 6.92953C6.4234 6.78605 7.09277 6.66873 7.79023 6.5797C7.55678 6.95174 7.3319 7.32942 7.1158 7.71226ZM7.81026 13.4508C7.08967 13.3686 6.41025 13.2573 5.78273 13.1177C5.97695 12.4767 6.21629 11.8107 6.49584 11.1332C6.69477 11.5259 6.90272 11.9137 7.11949 12.2963C7.34241 12.6897 7.57324 13.075 7.81026 13.4508ZM11.0365 16.1755C10.591 15.6844 10.1467 15.1412 9.71283 14.5569C10.1341 14.5738 10.5635 14.5824 11 14.5824C11.4484 14.5824 11.8917 14.5721 12.328 14.5522C11.8996 15.1471 11.4671 15.6911 11.0365 16.1755ZM15.5223 11.0986C15.8164 11.7835 16.0642 12.446 16.261 13.0761C15.6232 13.2248 14.9345 13.3446 14.2088 13.4335C14.4413 13.0569 14.6665 12.6756 14.8842 12.2897C15.1055 11.8976 15.3183 11.5004 15.5223 11.0986ZM14.0701 11.81C13.7369 12.4015 13.3849 12.9818 13.0147 13.5499C12.3442 13.5984 11.6722 13.6225 11 13.6222C10.3153 13.6222 9.64941 13.6004 9.00814 13.5579C8.62832 12.9911 8.26962 12.4098 7.93281 11.8152C7.59758 11.2238 7.28454 10.6197 6.9942 10.004C7.2838 9.38817 7.59598 8.78371 7.93006 8.19187C8.26401 7.59988 8.61976 7.02115 8.99671 6.45676C9.65095 6.40618 10.3219 6.37984 10.9999 6.37984C11.6811 6.37984 12.3529 6.40645 13.007 6.45738C13.3801 7.02092 13.7337 7.59775 14.067 8.18678C14.4022 8.77731 14.7185 9.37883 15.0154 9.99038C14.7216 10.6082 14.4063 11.2151 14.0701 11.81ZM16.0089 1.08636C16.7455 1.52049 17.032 3.27114 16.5692 5.56691C16.5396 5.71337 16.5064 5.86256 16.4704 6.01385C15.5575 5.79855 14.5664 5.63847 13.5287 5.53898C12.9242 4.6594 12.2978 3.85972 11.669 3.16743C11.8338 3.00512 12.0025 2.84702 12.175 2.69327C13.7992 1.24907 15.3172 0.678837 16.0089 1.08636ZM11 7.97375C12.085 7.97375 12.9645 8.87248 12.9645 9.98107C12.9645 11.0897 12.085 11.9884 11 11.9884C9.91504 11.9884 9.03547 11.0897 9.03547 9.98107C9.03547 8.87248 9.91504 7.97375 11 7.97375Z" fill="#00D8FF"/>
</svg>
