<svg width="20" height="20" viewBox="0 0 20 20" fill="none" xmlns="http://www.w3.org/2000/svg">
<path d="M13.8579 13.9678C14.5959 13.8874 15.1559 13.2172 15.1304 12.4128C15.105 11.6086 14.4687 10.9651 13.7052 10.9651H13.6543C12.8652 10.992 12.2545 11.689 12.2799 12.5201C12.3054 12.9222 12.458 13.2707 12.6871 13.512C11.8218 15.3083 10.4984 16.622 8.5132 17.7211C7.1643 18.4718 5.76453 18.7399 4.36476 18.5523C3.21945 18.3914 2.32867 17.8553 1.76867 16.9705C0.954296 15.6568 0.877968 14.2359 1.56516 12.815C2.04875 11.7962 2.81219 11.0455 3.29578 10.6702C3.19398 10.3217 3.04125 9.73189 2.96492 9.30298C-0.72547 12.118 -0.343673 15.9249 0.776171 17.7211C1.61601 19.0617 3.32125 19.8928 5.20461 19.8928C5.71359 19.8928 6.22258 19.8391 6.73164 19.7051C9.98937 19.0349 12.4581 16.9973 13.8579 13.9678ZM18.3373 10.6434C16.403 8.25736 13.5525 6.94372 10.2948 6.94372H9.88758C9.65851 6.46115 9.17492 6.13939 8.64047 6.13939H8.58953C7.80062 6.16621 7.18984 6.86324 7.21523 7.6944C7.2407 8.49865 7.87695 9.1421 8.64047 9.1421H8.69133C9.25125 9.11527 9.73484 8.73993 9.93844 8.23054H10.3966C12.3309 8.23054 14.1633 8.82033 15.8177 9.97317C17.0902 10.8579 18.0064 12.0107 18.5154 13.4048C18.948 14.5308 18.9226 15.63 18.4645 16.5684C17.7519 17.9893 16.5557 18.7668 14.9777 18.7668C13.9597 18.7668 12.9926 18.445 12.4835 18.2037C12.2036 18.4718 11.6945 18.9007 11.3382 19.1689C12.4327 19.7051 13.5525 20 14.6214 20C17.0647 20 18.8717 18.579 19.5589 17.1582C20.2969 15.6032 20.246 12.9222 18.3373 10.6434ZM5.4082 14.4235C5.43367 15.2278 6.06992 15.8712 6.83344 15.8712H6.88437C7.67336 15.8444 8.28414 15.1473 8.25867 14.3163C8.23328 13.5119 7.59695 12.8686 6.83344 12.8686H6.78258C6.73164 12.8686 6.65523 12.8686 6.60445 12.8953C5.56094 11.0723 5.12828 9.08844 5.28101 6.94364C5.38273 5.33506 5.8918 3.94093 6.78258 2.78809C7.52062 1.79613 8.94586 1.31356 9.91304 1.28682C12.6108 1.23316 13.756 4.77201 13.8324 6.19296C14.1633 6.27336 14.7232 6.46107 15.105 6.59513C14.7995 2.25203 12.2545 0 9.81125 0C7.52062 0 5.4082 1.74264 4.56828 4.31635C3.39758 7.74797 4.16109 11.0455 5.58633 13.6461C5.45914 13.8337 5.38273 14.1286 5.4082 14.4236V14.4235Z" fill="#764ABC"/>
</svg>
