<svg width="20" height="20" viewBox="0 0 20 20" fill="none" xmlns="http://www.w3.org/2000/svg">
<path d="M17.2196 11.507C16.5916 11.5081 15.972 11.6998 15.4076 12.0675C15.231 11.6761 15.0945 11.2548 15.002 10.8149C14.9488 10.47 14.9365 10.1162 14.9655 9.76628C15.0266 9.38122 15.1058 9.00169 15.2027 8.62996C15.1991 8.58134 15.1591 8.35159 14.757 8.34397C14.3549 8.33634 14.0085 8.44597 13.9714 8.58801C13.9015 8.84745 13.8454 9.11312 13.8035 9.38305C13.4707 10.4789 13.0611 11.5303 12.5801 12.5232C12.3106 11.9335 12.1997 11.2388 12.2658 10.5537C12.3269 10.1686 12.4061 9.78911 12.5029 9.41737C12.4994 9.36875 12.4594 9.13901 12.0573 9.13138C11.6552 9.12376 11.3088 9.23339 11.2716 9.37543C11.2345 9.51747 11.1874 9.85207 11.1038 10.1705C11.0202 10.4889 10.0446 13.3983 9.78893 14.1485C9.65752 14.5299 9.54396 14.8406 9.46397 15.0504C9.46017 15.064 9.45539 15.0771 9.44968 15.0894L9.34041 15.3678V15.3726C9.28541 15.5041 9.22685 15.6261 9.19757 15.6261C9.14649 15.3538 9.14895 15.0684 9.20471 14.7977C9.34755 13.7882 9.69751 12.2191 9.69394 12.1648C9.69394 12.1352 9.75965 11.8626 9.46754 11.7215C9.39979 11.6784 9.32371 11.6645 9.24978 11.6816C9.17585 11.6986 9.1077 11.7459 9.05472 11.8168C9.02901 11.8168 9.01116 11.8997 9.01116 11.8997C9.01116 11.8997 9.32898 10.1352 8.40479 10.1352C8.04489 10.2318 7.7031 10.4235 7.39953 10.6991C7.09596 10.9746 6.83674 11.3284 6.63711 11.7396C6.38857 11.9198 5.85933 12.3049 5.29296 12.7196C5.0787 12.8807 4.85444 13.0418 4.6466 13.1962C4.63232 13.1771 4.61732 13.1524 4.60303 13.1333C3.47815 11.5337 1.4105 10.405 1.49978 8.26484C1.53263 7.48505 1.73333 5.43739 5.47009 2.95026C8.54549 0.927381 10.9931 1.48792 11.4166 2.731C12.023 4.50603 10.1053 7.80155 6.9278 8.27915C6.57627 8.37434 6.2132 8.36285 5.86545 8.24553C5.51769 8.12821 5.19414 7.90806 4.91872 7.60136C4.75088 7.35731 4.72516 7.34302 4.66303 7.39163C4.5609 7.46504 4.6266 7.68429 4.66303 7.81108C4.78425 8.10388 4.9482 8.36129 5.14521 8.56808C5.34222 8.77488 5.56829 8.92687 5.81005 9.01508C7.06009 9.37564 8.36339 9.20325 9.5361 8.52223C11.4645 7.52795 12.9643 4.76342 12.5244 2.44788C12.0823 0.0980203 9.16043 -0.677004 6.39499 0.636628C4.66285 1.41458 3.06236 2.63997 1.68476 4.24292C0.161346 6.14473 -0.0793444 7.79678 0.019217 8.48982C0.376323 10.9474 2.91249 12.5461 3.92739 13.7329C3.88154 13.7677 3.83535 13.8017 3.78883 13.8349C3.28103 14.1714 1.34551 15.5222 0.86056 16.9503C0.312758 18.5709 0.948408 19.7291 1.36836 19.8854C2.00116 20.0876 2.66546 20.021 3.26854 19.6949C3.87161 19.3689 4.38334 18.7996 4.73231 18.0666C5.02946 17.4586 5.21212 16.7637 5.26472 16.0412C5.31733 15.3187 5.23831 14.5899 5.03442 13.9169C5.03097 13.906 5.02614 13.896 5.02013 13.8873L5.41795 13.5756C5.65968 13.3849 5.90447 13.2012 6.15216 13.0246C6.00348 13.597 5.91619 14.1946 5.8929 14.7996C5.84242 15.727 6.05504 16.6457 6.48856 17.3735C6.55452 17.4493 6.6311 17.5069 6.71385 17.5429C6.79661 17.5789 6.88389 17.5926 6.97065 17.5832C7.39918 17.5832 7.59559 17.1066 7.81056 16.5403C8.07339 15.8483 8.31051 15.0437 8.31051 15.0437C8.31051 15.0437 8.01483 17.2181 8.81832 17.2181C9.11043 17.2181 9.40611 16.711 9.53824 16.4555V16.4603L9.56038 16.4117L9.60752 16.3097V16.3001C9.72465 16.0275 9.98748 15.4078 10.3782 14.3792C10.8824 13.0532 11.3681 11.3954 11.3681 11.3954C11.4149 11.7598 11.4796 12.1196 11.5616 12.4727C11.6792 12.9006 11.8184 13.3175 11.978 13.7205C11.8609 13.9398 11.788 14.0618 11.788 14.0618L11.7916 14.0666C11.6966 14.2324 11.5945 14.4126 11.4809 14.588C11.143 15.0838 10.8296 15.6083 10.5424 16.1581C10.4998 16.2504 10.4851 16.361 10.5014 16.4673C10.5177 16.5736 10.5638 16.6676 10.6303 16.7301C10.7806 16.8345 10.952 16.8722 11.1195 16.8378C11.3719 16.8187 11.6202 16.743 11.8537 16.6138C12.0794 16.5077 12.2923 16.3584 12.4858 16.1705C12.6852 15.9861 12.8458 15.7363 12.952 15.4451C13.0581 15.1539 13.1064 14.8312 13.0922 14.5079C13.0697 14.1007 12.9918 13.7024 12.8622 13.3325C12.8986 13.2639 12.9336 13.1962 12.9679 13.1276C13.3739 12.3186 13.7399 11.475 14.0635 10.6023C14.1103 10.9666 14.175 11.3265 14.257 11.6795C14.3541 12.0494 14.4735 12.408 14.6142 12.752C14.147 13.2317 13.7791 13.8622 13.545 14.5842C13.315 15.4717 13.4936 15.8711 13.8307 15.9636C14.0151 15.9806 14.1996 15.9302 14.3642 15.8178C14.6062 15.7116 14.8342 15.5552 15.0398 15.3545C15.2566 15.1837 15.4382 14.9436 15.5682 14.6559C15.6983 14.3682 15.7727 14.0418 15.7847 13.7062C15.7685 13.3712 15.7119 13.0419 15.6169 12.731C16.2333 12.4096 16.9017 12.3071 17.5567 12.4336C19.2951 12.7062 19.6386 14.1543 19.5729 14.7644C19.5421 14.9807 19.477 15.1856 19.3819 15.3655C19.2868 15.5454 19.1639 15.696 19.0216 15.8073C18.9009 15.9093 18.8609 15.9436 18.8716 16.017C18.8859 16.1247 18.943 16.119 19.0466 16.0999C19.3086 15.9912 19.5397 15.7791 19.7096 15.4915C19.8794 15.2039 19.9799 14.8543 19.9979 14.4889C20.0529 13.0589 19.0301 11.4908 17.2217 11.5051L17.2196 11.507ZM3.80669 17.5394C3.2296 18.3783 2.42611 18.6948 2.07901 18.4269C1.70619 18.1409 1.8526 16.9016 2.5611 16.0132C2.98138 15.5082 3.43563 15.056 3.9181 14.6624C4.00238 14.5937 4.12665 14.4965 4.27521 14.3764L4.31521 14.3468L4.40305 14.2734C4.52963 14.8395 4.54111 15.4403 4.43631 16.0142C4.33151 16.5882 4.1142 17.1145 3.80669 17.5394ZM8.00697 13.7262C7.80628 14.3792 7.38632 16.0523 7.13063 15.9588C6.91137 15.8807 6.77353 14.6128 7.08707 13.3602C7.24537 12.7572 7.47597 12.1925 7.76985 11.6881C8.08411 11.22 8.43121 11.0637 8.51478 11.2544C8.43854 12.1074 8.26739 12.9406 8.00697 13.7262ZM11.473 15.9398C11.3888 15.9979 11.3088 16.0351 11.2724 16.0084C11.2466 15.9893 11.3088 15.9131 11.3088 15.9131C11.3088 15.9131 11.7437 15.2887 11.9151 15.0065C12.0137 14.8406 12.1294 14.6462 12.2551 14.426V14.4889C12.2551 15.2343 11.7145 15.7367 11.4738 15.9417L11.473 15.9398ZM14.1471 15.1257C14.0849 15.0675 14.0956 14.8721 14.3042 14.2629C14.4492 13.8717 14.6518 13.5235 14.8998 13.2391C14.9379 13.3834 14.9577 13.5351 14.9584 13.6881C14.9612 14.0137 14.8832 14.3314 14.7366 14.5916C14.5899 14.8518 14.3829 15.0399 14.1478 15.1266L14.1471 15.1257Z" fill="#CD6799"/>
</svg>
