<svg width="20" height="20" viewBox="0 0 20 20" fill="none" xmlns="http://www.w3.org/2000/svg">
<path d="M0 10V20H20V0H0V10Z" fill="#007ACC"/>
<path d="M4.42271 10.0664L4.41638 10.8854H7.01951V18.2823H8.86091V10.8854H11.464V10.0823C11.464 9.63773 11.4545 9.26632 11.4419 9.25679C11.4323 9.24413 9.84818 9.23773 7.92755 9.24093L4.43232 9.25046L4.42279 10.0663L4.42271 10.0664Z" fill="white"/>
<path d="M16.1381 9.2272C16.6459 9.35424 17.0333 9.57955 17.3888 9.94783C17.573 10.1447 17.8459 10.5035 17.8682 10.5892C17.8745 10.6145 17.0047 11.1987 16.4777 11.5256C16.4587 11.5384 16.3824 11.4558 16.2967 11.3288C16.0396 10.9542 15.7698 10.7923 15.357 10.7638C14.7508 10.7224 14.3602 11.0399 14.3634 11.57C14.3634 11.7256 14.3856 11.8177 14.4491 11.9447C14.5825 12.2209 14.8301 12.386 15.6079 12.7224C17.0396 13.3384 17.6523 13.7447 18.0333 14.3224C18.4587 14.967 18.5539 15.9955 18.265 16.7606C17.9476 17.5923 17.1603 18.1574 16.0523 18.3447C15.7095 18.405 14.8968 18.3955 14.5285 18.3288C13.7254 18.186 12.9634 17.7892 12.4936 17.2685C12.3095 17.0653 11.9507 16.5352 11.973 16.497C11.9825 16.4844 12.065 16.4336 12.157 16.3796C12.2459 16.3288 12.5825 16.1351 12.8999 15.951L13.4745 15.6177L13.5952 15.7955C13.7634 16.0526 14.1316 16.405 14.3539 16.5224C14.992 16.859 15.8682 16.8113 16.2999 16.424C16.4841 16.2558 16.5602 16.0812 16.5602 15.824C16.5602 15.5923 16.5316 15.4907 16.411 15.3162C16.2556 15.0939 15.9381 14.9066 15.0364 14.5162C14.0047 14.0717 13.5602 13.7955 13.1539 13.3574C12.919 13.1035 12.6967 12.697 12.6047 12.3574C12.5285 12.0749 12.5094 11.3669 12.5698 11.0812C12.7825 10.0843 13.5349 9.38916 14.6206 9.18275C14.9729 9.11611 15.792 9.1415 16.1381 9.22728V9.2272Z" fill="white"/>
</svg>
