<svg width="25" height="20" viewBox="0 0 25 20" fill="none" xmlns="http://www.w3.org/2000/svg">
<g clip-path="url(#clip0_123:19)">
<path d="M24.4477 3.11944C24.3043 2.51651 24.0246 1.96683 23.6364 1.52514C23.2482 1.08346 22.7651 0.765179 22.2352 0.602C20.2951 0 12.4871 0 12.4871 0C12.4871 0 4.67874 0.0182222 2.7387 0.620222C2.20877 0.783411 1.72566 1.10171 1.33748 1.54341C0.949293 1.98512 0.669584 2.53482 0.526203 3.13778C-0.0606136 7.05978 -0.28825 13.036 0.542316 16.8011C0.685712 17.4041 0.965428 17.9537 1.35361 18.3954C1.74179 18.8371 2.2249 19.1554 2.75482 19.3186C4.69486 19.9206 12.5031 19.9206 12.5031 19.9206C12.5031 19.9206 20.3112 19.9206 22.2511 19.3186C22.781 19.1554 23.2642 18.8371 23.6524 18.3954C24.0406 17.9538 24.3203 17.4041 24.4637 16.8011C25.0826 12.8736 25.2734 6.90111 24.4477 3.11956V3.11944Z" fill="#0E123E"/>
<path d="M10.002 14.2289L16.4794 9.96023L10.0021 5.69156L10.002 14.2289Z" fill="white"/>
</g>
<defs>
<clipPath id="clip0_123:19">
<rect width="25" height="20" fill="white"/>
</clipPath>
</defs>
</svg>
